<svg width="32" height="32" viewBox="0 0 32 32" fill="none" xmlns="http://www.w3.org/2000/svg">
  <!-- Fondo circular -->
  <circle cx="16" cy="16" r="16" fill="#F3F4F6"/>
  
  <!-- Anillo de joyería -->
  <path d="M8 16C8 11.5817 11.5817 8 16 8C20.4183 8 24 11.5817 24 16C24 20.4183 20.4183 24 16 24C11.5817 24 8 20.4183 8 16Z" fill="#E5E7EB"/>
  
  <!-- Piedra preciosa central -->
  <path d="M14 14L16 12L18 14L16 16L14 14Z" fill="#8B5CF6"/>
  <path d="M14 18L16 16L18 18L16 20L14 18Z" fill="#8B5CF6"/>
  <path d="M12 16L14 14L16 16L14 18L12 16Z" fill="#8B5CF6"/>
  <path d="M18 16L16 14L18 12L20 14L18 16Z" fill="#8B5CF6"/>
  
  <!-- Brillo en la piedra -->
  <circle cx="15" cy="15" r="1" fill="#FFFFFF" opacity="0.8"/>
  
  <!-- Detalles del anillo -->
  <path d="M10 16C10 12.6863 12.6863 10 16 10C19.3137 10 22 12.6863 22 16C22 19.3137 19.3137 22 16 22C12.6863 22 10 19.3137 10 16Z" stroke="#6B7280" stroke-width="0.5" fill="none"/>
  
  <!-- Pequeños diamantes alrededor -->
  <path d="M16 6L17 7L16 8L15 7L16 6Z" fill="#F59E0B"/>
  <path d="M16 24L17 25L16 26L15 25L16 24Z" fill="#F59E0B"/>
  <path d="M26 16L25 17L24 16L25 15L26 16Z" fill="#F59E0B"/>
  <path d="M6 16L5 17L4 16L5 15L6 16Z" fill="#F59E0B"/>
</svg>
